<svg class="main-svg" xmlns="http://www.w3.org/2000/svg" xmlns:xlink="http://www.w3.org/1999/xlink" width="700" height="500" viewBox="0 0 700 500"><rect x="0" y="0" width="700" height="500" style="fill: rgb(255, 255, 255); fill-opacity: 1;"/><defs id="defs-2a5cb4"><g class="clips"/><g class="gradients"/></defs><g class="bglayer"/><g class="layer-below"><g class="imagelayer"/><g class="shapelayer"/></g><g class="cartesianlayer"/><g class="polarlayer"/><g class="ternarylayer"/><g class="geolayer"/><g class="funnelarealayer"/><g class="pielayer"/><g class="sunburstlayer"><g class="trace sunburst" stroke-linejoin="round" style="opacity: 1;"><g class="slice"><path class="surface" d="M350,260A0,0 0,1,0 350,260A0,0 0,1,0 350,260ZM376.6666666666667,260A26.666666666666664,26.666666666666664 0,1,1 323.3333333333333,260A26.666666666666664,26.666666666666664 0,1,1 376.6666666666667,260Z" style="pointer-events: all; stroke-width: 1; fill: rgb(0, 0, 0); fill-opacity: 0; stroke: rgb(255, 255, 255); stroke-opacity: 1;"/><g class="slicetext"><text data-notex="1" class="slicetext" text-anchor="middle" x="0" y="0" style="font-family: 'Open Sans', verdana, arial, sans-serif; font-size: 12px; fill: rgb(42, 63, 95); fill-opacity: 1; white-space: pre;" transform="translate(350,260)translate(-0.34375,4.5)">./</text></g></g><g class="slice cursor-pointer"><path class="surface" d="M376.6666666666667,260L403.3333333333333,260A53.33333333333333,53.33333333333333 0,0,0 303.70735445096733,233.51537403480904L326.85367722548364,246.75768701740452A26.666666666666664,26.666666666666664 0,0,1 376.6666666666667,260Z" style="pointer-events: all; stroke-width: 1; fill: rgb(99, 110, 250); fill-opacity: 1; stroke: rgb(255, 255, 255); stroke-opacity: 1;"/><g class="slicetext"><text data-notex="1" class="slicetext" text-anchor="middle" x="0" y="0" style="font-family: 'Open Sans', verdana, arial, sans-serif; font-size: 12px; fill: rgb(255, 255, 255); fill-opacity: 1; white-space: pre;" transform="translate(359.73354224239364,223.3857893569714)rotate(14.887218045112832)translate(-0.0078125,4.5)">build</text></g></g><g class="slice cursor-pointer"><path class="surface" d="M326.85367722548364,246.75768701740452L303.70735445096733,233.51537403480904A53.33333333333333,53.33333333333333 0,0,0 363.09255931417596,311.70134751676426L356.54627965708795,285.85067375838213A26.666666666666664,26.666666666666664 0,0,1 326.85367722548364,246.75768701740452Z" style="pointer-events: all; stroke-width: 1; fill: rgb(239, 85, 59); fill-opacity: 1; stroke: rgb(255, 255, 255); stroke-opacity: 1;"/><g class="slicetext"><text data-notex="1" class="slicetext" text-anchor="middle" x="0" y="0" style="font-family: 'Open Sans', verdana, arial, sans-serif; font-size: 12px; fill: rgb(68, 68, 68); fill-opacity: 1; white-space: pre;" transform="translate(318.14642151728026,284.1939979715055)translate(-0.328125,4.5)">.git</text></g></g><g class="slice cursor-pointer"><path class="surface" d="M356.54627965708795,285.85067375838213L363.09255931417596,311.70134751676426A53.33333333333333,53.33333333333333 0,0,0 399.0908571069152,280.8454357822732L374.5454285534576,270.42271789113664A26.666666666666664,26.666666666666664 0,0,1 356.54627965708795,285.85067375838213Z" style="pointer-events: all; stroke-width: 1; fill: rgb(0, 204, 150); fill-opacity: 1; stroke: rgb(255, 255, 255); stroke-opacity: 1;"/><g class="slicetext"><text data-notex="1" class="slicetext" text-anchor="middle" x="0" y="0" style="font-family: 'Open Sans', verdana, arial, sans-serif; font-size: 12px; fill: rgb(68, 68, 68); fill-opacity: 1; white-space: pre;" transform="translate(378.33765183349016,293.06034960907203)rotate(-40.6015037593985)translate(-0.3125,4.5)">cmake</text></g></g><g class="slice"><path class="surface" d="M374.5454285534576,270.42271789113664L399.0908571069152,280.8454357822732A53.33333333333333,53.33333333333333 0,0,0 400.02050036118317,278.50389116000514L375.0102501805916,269.25194558000254A26.666666666666664,26.666666666666664 0,0,1 374.5454285534576,270.42271789113664Z" style="pointer-events: all; stroke-width: 1; fill: rgb(171, 99, 250); fill-opacity: 1; stroke: rgb(255, 255, 255); stroke-opacity: 1; opacity: 0.7;"/><g class="slicetext"><text data-notex="1" class="slicetext" text-anchor="middle" x="0" y="0" style="font-family: 'Open Sans', verdana, arial, sans-serif; font-size: 12px; fill: rgb(68, 68, 68); fill-opacity: 1; white-space: pre;" transform="translate(396.7267607874653,278.5515225918627)scale(0.17165777280992833)rotate(21.654135338345895)translate(-0.15625,4.5)">.github</text></g></g><g class="slice cursor-pointer"><path class="surface" d="M403.3333333333333,260L430,260A80,80 0,0,0 300.1208158513013,197.4534814025576L316.74721056753424,218.3023209350384A53.33333333333333,53.33333333333333 0,0,1 403.3333333333333,260Z" style="pointer-events: all; stroke-width: 1; fill: rgb(99, 110, 250); fill-opacity: 1; stroke: rgb(255, 255, 255); stroke-opacity: 1;"/><g class="slicetext"><text data-notex="1" class="slicetext" text-anchor="middle" x="0" y="0" style="font-family: 'Open Sans', verdana, arial, sans-serif; font-size: 12px; fill: rgb(255, 255, 255); fill-opacity: 1; white-space: pre;" transform="translate(376.8415512146793,204.26294458552616)rotate(25.714285714285666)translate(-0.0390625,4.5)">CMakeFiles</text></g></g><g class="slice"><path class="surface" d="M316.74721056753424,218.3023209350384L300.1208158513013,197.4534814025576A80,80 0,0,0 295.8174742699407,201.14208714614946L313.8783161799605,220.7613914307663A53.33333333333333,53.33333333333333 0,0,1 316.74721056753424,218.3023209350384Z" style="pointer-events: all; stroke-width: 1; fill: rgb(99, 110, 250); fill-opacity: 1; stroke: rgb(255, 255, 255); stroke-opacity: 1; opacity: 0.7;"/><g class="slicetext"><text data-notex="1" class="slicetext" text-anchor="middle" x="0" y="0" style="font-family: 'Open Sans', verdana, arial, sans-serif; font-size: 12px; fill: rgb(255, 255, 255); fill-opacity: 1; white-space: pre;" transform="translate(301.62216039819265,203.55960402205363)scale(0.3746967010218451)rotate(49.3984962406015)translate(0,4.5)">install</text></g></g><g class="slice cursor-pointer"><path class="surface" d="M303.70735445096733,233.51537403480904L280.56103167645097,220.27306105221356A80,80 0,0,0 303.13018916318197,324.8322514811949L318.7534594421213,303.2215009874633A53.33333333333333,53.33333333333333 0,0,1 303.70735445096733,233.51537403480904Z" style="pointer-events: all; stroke-width: 1; fill: rgb(239, 85, 59); fill-opacity: 1; stroke: rgb(255, 255, 255); stroke-opacity: 1;"/><g class="slicetext"><text data-notex="1" class="slicetext" text-anchor="middle" x="0" y="0" style="font-family: 'Open Sans', verdana, arial, sans-serif; font-size: 12px; fill: rgb(68, 68, 68); fill-opacity: 1; white-space: pre;" transform="translate(287.3413357673784,273.5249063728622)rotate(77.81954887218046)translate(-0.0546875,4)">objects</text></g></g><g class="slice"><path class="surface" d="M318.7534594421213,303.2215009874633L303.13018916318197,324.8322514811949A80,80 0,0,0 324.9194791969775,335.9668840762154L333.27965279798497,310.6445893841436A53.33333333333333,53.33333333333333 0,0,1 318.7534594421213,303.2215009874633Z" style="pointer-events: all; stroke-width: 1; fill: rgb(239, 85, 59); fill-opacity: 1; stroke: rgb(255, 255, 255); stroke-opacity: 1; opacity: 0.7;"/><g class="slicetext"><text data-notex="1" class="slicetext" text-anchor="middle" x="0" y="0" style="font-family: 'Open Sans', verdana, arial, sans-serif; font-size: 12px; fill: rgb(68, 68, 68); fill-opacity: 1; white-space: pre;" transform="translate(319.706506474327,319.28114025630117)scale(0.8431112087768633)rotate(-62.932330827067744)translate(-0.046875,4.5)">hooks</text></g></g><g class="slice cursor-pointer"><path class="surface" d="M333.27965279798497,310.6445893841436L324.9194791969775,335.9668840762154A80,80 0,0,0 339.6359727222038,339.32582768925323L343.0906484814692,312.8838851261688A53.33333333333333,53.33333333333333 0,0,1 333.27965279798497,310.6445893841436Z" style="pointer-events: all; stroke-width: 1; fill: rgb(239, 85, 59); fill-opacity: 1; stroke: rgb(255, 255, 255); stroke-opacity: 1;"/><g class="slicetext"><text data-notex="1" class="slicetext" text-anchor="middle" x="0" y="0" style="font-family: 'Open Sans', verdana, arial, sans-serif; font-size: 12px; fill: rgb(68, 68, 68); fill-opacity: 1; white-space: pre;" transform="translate(334.36771967224024,328.4894951302686)scale(0.8850917817169335)rotate(-77.14285714285711)translate(-0.046875,4.5)">logs</text></g></g><g class="slice cursor-pointer"><path class="surface" d="M343.0906484814692,312.8838851261688L339.6359727222038,339.32582768925323A80,80 0,0,0 352.8339266529643,339.9497896165188L351.8892844353095,313.2998597443459A53.33333333333333,53.33333333333333 0,0,1 343.0906484814692,312.8838851261688Z" style="pointer-events: all; stroke-width: 1; fill: rgb(239, 85, 59); fill-opacity: 1; stroke: rgb(255, 255, 255); stroke-opacity: 1;"/><g class="slicetext"><text data-notex="1" class="slicetext" text-anchor="middle" x="0" y="0" style="font-family: 'Open Sans', verdana, arial, sans-serif; font-size: 12px; fill: rgb(68, 68, 68); fill-opacity: 1; white-space: pre;" transform="translate(346.60915536059156,331.7226634858951)scale(0.8130708387061524)rotate(-87.29323308270682)translate(-0.0546875,4.5)">refs</text></g></g><g class="slice"><path class="surface" d="M351.8892844353095,313.2998597443459L352.8339266529643,339.9497896165188A80,80 0,0,0 356.60634763778654,339.7267594405336L354.40423175852436,313.1511729603557A53.33333333333333,53.33333333333333 0,0,1 351.8892844353095,313.2998597443459Z" style="pointer-events: all; stroke-width: 1; fill: rgb(239, 85, 59); fill-opacity: 1; stroke: rgb(255, 255, 255); stroke-opacity: 1; opacity: 0.7;"/><g class="slicetext"><text data-notex="1" class="slicetext" text-anchor="middle" x="0" y="0" style="font-family: 'Open Sans', verdana, arial, sans-serif; font-size: 12px; fill: rgb(68, 68, 68); fill-opacity: 1; white-space: pre;" transform="translate(354.564448957819,337.2049026844152)scale(0.2715062331542656)rotate(86.61654135338347)translate(-0.2890625,4.5)">info</text></g></g><g class="slice"><path class="surface" d="M354.40423175852436,313.1511729603557L356.60634763778654,339.7267594405336A80,80 0,0,0 358.48755516984454,339.54848463194537L355.6583701132297,313.03232308796356A53.33333333333333,53.33333333333333 0,0,1 354.40423175852436,313.1511729603557Z" style="pointer-events: all; stroke-width: 1; fill: rgb(239, 85, 59); fill-opacity: 1; stroke: rgb(255, 255, 255); stroke-opacity: 1; opacity: 0.7;"/><g class="slicetext"><text data-notex="1" class="slicetext" text-anchor="middle" x="0" y="0" style="font-family: 'Open Sans', verdana, arial, sans-serif; font-size: 12px; fill: rgb(68, 68, 68); fill-opacity: 1; white-space: pre;" transform="translate(357.2411410922103,336.41062285374926)scale(0.13357502605248245)rotate(84.58646616541364)translate(-0.0546875,4.5)">branches</text></g></g><g class="slice"><path class="surface" d="M363.09255931417596,311.70134751676426L369.6388389712639,337.55202127514644A80,80 0,0,0 410.74033817155106,312.0635315629435L390.49355878103404,294.7090210419624A53.33333333333333,53.33333333333333 0,0,1 363.09255931417596,311.70134751676426Z" style="pointer-events: all; stroke-width: 1; fill: rgb(0, 204, 150); fill-opacity: 1; stroke: rgb(255, 255, 255); stroke-opacity: 1; opacity: 0.7;"/><g class="slicetext"><text data-notex="1" class="slicetext" text-anchor="middle" x="0" y="0" style="font-family: 'Open Sans', verdana, arial, sans-serif; font-size: 12px; fill: rgb(68, 68, 68); fill-opacity: 1; white-space: pre;" transform="translate(387.5627127209664,320.57180414743306)scale(0.9339646649213088)rotate(-31.804511278195378)translate(-0.0546875,4.5)">modules</text></g></g><g class="slice"><path class="surface" d="M390.49355878103404,294.7090210419624L410.74033817155106,312.0635315629435A80,80 0,0,0 421.2375773975555,296.40340048027497L397.49171826503704,284.2689336535167A53.33333333333333,53.33333333333333 0,0,1 390.49355878103404,294.7090210419624Z" style="pointer-events: all; stroke-width: 1; fill: rgb(0, 204, 150); fill-opacity: 1; stroke: rgb(255, 255, 255); stroke-opacity: 1; opacity: 0.7;"/><g class="slicetext"><text data-notex="1" class="slicetext" text-anchor="middle" x="0" y="0" style="font-family: 'Open Sans', verdana, arial, sans-serif; font-size: 12px; fill: rgb(68, 68, 68); fill-opacity: 1; white-space: pre;" transform="translate(405.3592111204738,297.1081748566996)scale(0.3978500247987252)rotate(33.83458646616543)translate(-0.0390625,4.5)">find-modules</text></g></g><g class="slice cursor-pointer"><path class="surface" d="M430,260L456.66666666666663,260A106.66666666666666,106.66666666666666 0,0,0 414.51732792401464,175.05712404608062L398.387995943011,196.29284303456046A80,80 0,0,1 430,260Z" style="pointer-events: all; stroke-width: 1; fill: rgb(99, 110, 250); fill-opacity: 1; stroke: rgb(255, 255, 255); stroke-opacity: 1;"/><g class="slicetext"><text data-notex="1" class="slicetext" text-anchor="middle" x="0" y="0" style="font-family: 'Open Sans', verdana, arial, sans-serif; font-size: 12px; fill: rgb(255, 255, 255); fill-opacity: 1; white-space: pre;" transform="translate(431.6303286751804,219.49437387932662)rotate(63.60902255639098)translate(-0.0546875,4)">lxqt-build-tools</text></g></g><g class="slice cursor-pointer"><path class="surface" d="M398.387995943011,196.29284303456046L414.51732792401464,175.05712404608062A106.66666666666666,106.66666666666666 0,0,0 323.8148813716481,156.59730496647143L330.3611610287361,182.44797872485356A80,80 0,0,1 398.387995943011,196.29284303456046Z" style="pointer-events: all; stroke-width: 1; fill: rgb(99, 110, 250); fill-opacity: 1; stroke: rgb(255, 255, 255); stroke-opacity: 1;"/><g class="slicetext"><text data-notex="1" class="slicetext" text-anchor="middle" x="0" y="0" style="font-family: 'Open Sans', verdana, arial, sans-serif; font-size: 12px; fill: rgb(255, 255, 255); fill-opacity: 1; white-space: pre;" transform="translate(368.23385821416014,170.40781369628115)rotate(11.503759398496186)translate(0,4.5)">3.15.1</text></g></g><g class="slice"><path class="surface" d="M330.3611610287361,182.44797872485356L323.8148813716481,156.59730496647143A106.66666666666666,106.66666666666666 0,0,0 321.37993837936165,157.24461157385156L328.53495378452124,182.93345868038867A80,80 0,0,1 330.3611610287361,182.44797872485356Z" style="pointer-events: all; stroke-width: 1; fill: rgb(99, 110, 250); fill-opacity: 1; stroke: rgb(255, 255, 255); stroke-opacity: 1; opacity: 0.7;"/><g class="slicetext"><text data-notex="1" class="slicetext" text-anchor="middle" x="0" y="0" style="font-family: 'Open Sans', verdana, arial, sans-serif; font-size: 12px; fill: rgb(255, 255, 255); fill-opacity: 1; white-space: pre;" transform="translate(323.895844322353,161.8052184047712)scale(0.1629082292441894)rotate(75.11278195488717)translate(-0.15625,4)">CMakeTmp</text></g></g><g class="slice"><path class="surface" d="M280.56103167645097,220.27306105221356L257.4147089019346,207.03074806961806A106.66666666666666,106.66666666666666 0,0,0 283.4944211350684,343.3953581299231L300.1208158513013,322.5465185974424A80,80 0,0,1 280.56103167645097,220.27306105221356Z" style="pointer-events: all; stroke-width: 1; fill: rgb(239, 85, 59); fill-opacity: 1; stroke: rgb(255, 255, 255); stroke-opacity: 1; opacity: 0.7;"/><g class="slicetext"><text data-notex="1" class="slicetext" text-anchor="middle" x="0" y="0" style="font-family: 'Open Sans', verdana, arial, sans-serif; font-size: 12px; fill: rgb(68, 68, 68); fill-opacity: 1; white-space: pre;" transform="translate(259.510777408223,277.30605092002895)rotate(79.17293233082705)translate(-0.421875,4)">pack</text></g></g><g class="slice"><path class="surface" d="M300.1208158513013,322.5465185974424L283.4944211350684,343.3953581299231A106.66666666666666,106.66666666666666 0,0,0 285.4826720759853,344.9428759539194L301.612004056989,323.70715696543954A80,80 0,0,1 300.1208158513013,322.5465185974424Z" style="pointer-events: all; stroke-width: 1; fill: rgb(239, 85, 59); fill-opacity: 1; stroke: rgb(255, 255, 255); stroke-opacity: 1; opacity: 0.7;"/><g class="slicetext"><text data-notex="1" class="slicetext" text-anchor="middle" x="0" y="0" style="font-family: 'Open Sans', verdana, arial, sans-serif; font-size: 12px; fill: rgb(68, 68, 68); fill-opacity: 1; white-space: pre;" transform="translate(285.6065631116076,342.7326894055433)scale(0.18719282777082327)rotate(-52.1052631578948)translate(-0.2890625,4.5)">info</text></g></g><g class="slice cursor-pointer"><path class="surface" d="M324.9194791969775,335.9668840762154L316.55930559597,361.28917876828723A106.66666666666666,106.66666666666666 0,0,0 331.2018923728296,364.9971853309178L335.90141927962225,338.74788899818833A80,80 0,0,1 324.9194791969775,335.9668840762154Z" style="pointer-events: all; stroke-width: 1; fill: rgb(239, 85, 59); fill-opacity: 1; stroke: rgb(255, 255, 255); stroke-opacity: 1;"/><g class="slicetext"><text data-notex="1" class="slicetext" text-anchor="middle" x="0" y="0" style="font-family: 'Open Sans', verdana, arial, sans-serif; font-size: 12px; fill: rgb(68, 68, 68); fill-opacity: 1; white-space: pre;" transform="translate(326.17668805314736,354.0761313665307)scale(0.9566812885779706)rotate(-75.78947368421052)translate(-0.0546875,4.5)">refs</text></g></g><g class="slice cursor-pointer"><path class="surface" d="M339.6359727222038,339.32582768925323L336.1812969629384,365.76777025233764A106.66666666666666,106.66666666666666 0,0,0 343.7047276594428,366.4807368679236L345.2785457445821,339.86055265094274A80,80 0,0,1 339.6359727222038,339.32582768925323Z" style="pointer-events: all; stroke-width: 1; fill: rgb(239, 85, 59); fill-opacity: 1; stroke: rgb(255, 255, 255); stroke-opacity: 1;"/><g class="slicetext"><text data-notex="1" class="slicetext" text-anchor="middle" x="0" y="0" style="font-family: 'Open Sans', verdana, arial, sans-serif; font-size: 12px; fill: rgb(68, 68, 68); fill-opacity: 1; white-space: pre;" transform="translate(340.88325460214736,356.20254396069663)scale(0.47249771718073974)rotate(-84.58646616541353)translate(-0.046875,4.5)">remotes</text></g></g><g class="slice"><path class="surface" d="M345.2785457445821,339.86055265094274L343.7047276594428,366.4807368679236A106.66666666666666,106.66666666666666 0,0,0 348.74024275953224,366.6592273995685L349.05518206964916,339.9944205496764A80,80 0,0,1 345.2785457445821,339.86055265094274Z" style="pointer-events: all; stroke-width: 1; fill: rgb(239, 85, 59); fill-opacity: 1; stroke: rgb(255, 255, 255); stroke-opacity: 1; opacity: 0.7;"/><g class="slicetext"><text data-notex="1" class="slicetext" text-anchor="middle" x="0" y="0" style="font-family: 'Open Sans', verdana, arial, sans-serif; font-size: 12px; fill: rgb(68, 68, 68); fill-opacity: 1; white-space: pre;" transform="translate(346.4193376240329,361.01644774288775)scale(0.3471732343513994)rotate(-87.96992481203006)translate(-0.0546875,4.5)">heads</text></g></g><g class="slice"><path class="surface" d="M349.05518206964916,339.9944205496764L348.74024275953224,366.6592273995685A106.66666666666666,106.66666666666666 0,0,0 351.25975724046754,366.6592273995685L350.94481793035067,339.9944205496764A80,80 0,0,1 349.05518206964916,339.9944205496764Z" style="pointer-events: all; stroke-width: 1; fill: rgb(239, 85, 59); fill-opacity: 1; stroke: rgb(255, 255, 255); stroke-opacity: 1; opacity: 0.7;"/><g class="slicetext"><text data-notex="1" class="slicetext" text-anchor="middle" x="0" y="0" style="font-family: 'Open Sans', verdana, arial, sans-serif; font-size: 12px; fill: rgb(68, 68, 68); fill-opacity: 1; white-space: pre;" transform="translate(349.9999999999999,364.5678755996386)scale(0.186207440966491)rotate(-90)translate(-0.046875,4.5)">tags</text></g></g><g class="slice cursor-pointer"><path class="surface" d="M456.66666666666663,260L483.33333333333337,260A133.33333333333334,133.33333333333334 0,0,0 433.1319735811645,155.75580233759604L416.5055788649316,176.60464187007682A106.66666666666666,106.66666666666666 0,0,1 456.66666666666663,260Z" style="pointer-events: all; stroke-width: 1; fill: rgb(99, 110, 250); fill-opacity: 1; stroke: rgb(255, 255, 255); stroke-opacity: 1;"/><g class="slicetext"><text data-notex="1" class="slicetext" text-anchor="middle" x="0" y="0" style="font-family: 'Open Sans', verdana, arial, sans-serif; font-size: 12px; fill: rgb(255, 255, 255); fill-opacity: 1; white-space: pre;" transform="translate(456.4690299346415,208.72721749441766)rotate(64.28571428571433)translate(-0.3125,4.5)">cmake</text></g></g><g class="slice cursor-pointer"><path class="surface" d="M414.51732792401464,175.05712404608062L430.64665990501834,153.82140505760077A133.33333333333334,133.33333333333334 0,0,0 397.733384902664,135.50380831723442L388.1867079221312,160.40304665378756A106.66666666666666,106.66666666666666 0,0,1 414.51732792401464,175.05712404608062Z" style="pointer-events: all; stroke-width: 1; fill: rgb(99, 110, 250); fill-opacity: 1; stroke: rgb(255, 255, 255); stroke-opacity: 1;"/><g class="slicetext"><text data-notex="1" class="slicetext" text-anchor="middle" x="0" y="0" style="font-family: 'Open Sans', verdana, arial, sans-serif; font-size: 12px; fill: rgb(255, 255, 255); fill-opacity: 1; white-space: pre;" transform="translate(412.43095181268905,147.82332558170128)scale(0.5386377037322344)rotate(29.097744360902198)translate(-0.2421875,4)">CompilerIdC</text></g></g><g class="slice cursor-pointer"><path class="surface" d="M388.1867079221312,160.40304665378756L397.733384902664,135.50380831723442A133.33333333333334,133.33333333333334 0,0,0 361.01057939631096,127.12206759911066L358.8084635170488,153.69765407928855A106.66666666666666,106.66666666666666 0,0,1 388.1867079221312,160.40304665378756Z" style="pointer-events: all; stroke-width: 1; fill: rgb(99, 110, 250); fill-opacity: 1; stroke: rgb(255, 255, 255); stroke-opacity: 1;"/><g class="slicetext"><text data-notex="1" class="slicetext" text-anchor="middle" x="0" y="0" style="font-family: 'Open Sans', verdana, arial, sans-serif; font-size: 12px; fill: rgb(255, 255, 255); fill-opacity: 1; white-space: pre;" transform="translate(378.71274003327665,134.20126638890758)scale(0.44148168918976816)rotate(12.85714285714289)translate(-0.0625,4)">CompilerIdCXX</text></g></g><g class="slice cursor-pointer"><path class="surface" d="M316.55930559597,361.28917876828723L308.1991319949625,386.6114734603591A133.33333333333334,133.33333333333334 0,0,0 317.26860171456013,389.2533687919107L323.8148813716481,363.4026950335286A106.66666666666666,106.66666666666666 0,0,1 316.55930559597,361.28917876828723Z" style="pointer-events: all; stroke-width: 1; fill: rgb(239, 85, 59); fill-opacity: 1; stroke: rgb(255, 255, 255); stroke-opacity: 1;"/><g class="slicetext"><text data-notex="1" class="slicetext" text-anchor="middle" x="0" y="0" style="font-family: 'Open Sans', verdana, arial, sans-serif; font-size: 12px; fill: rgb(68, 68, 68); fill-opacity: 1; white-space: pre;" transform="translate(316.21793141641604,375.9718344724269)scale(0.5906221464759308)rotate(-73.75939849624069)translate(-0.046875,4.5)">remotes</text></g></g><g class="slice"><path class="surface" d="M323.8148813716481,363.4026950335286L317.26860171456013,389.2533687919107A133.33333333333334,133.33333333333334 0,0,0 323.409035913121,390.6548828276543L328.7272287304968,364.5239062621235A106.66666666666666,106.66666666666666 0,0,1 323.8148813716481,363.4026950335286Z" style="pointer-events: all; stroke-width: 1; fill: rgb(239, 85, 59); fill-opacity: 1; stroke: rgb(255, 255, 255); stroke-opacity: 1; opacity: 0.7;"/><g class="slicetext"><text data-notex="1" class="slicetext" text-anchor="middle" x="0" y="0" style="font-family: 'Open Sans', verdana, arial, sans-serif; font-size: 12px; fill: rgb(68, 68, 68); fill-opacity: 1; white-space: pre;" transform="translate(321.8845110105802,383.18200581437134)scale(0.43396654293924936)rotate(-77.14285714285711)translate(-0.0546875,4.5)">heads</text></g></g><g class="slice"><path class="surface" d="M336.1812969629384,365.76777025233764L332.726621203673,392.2097128154221A133.33333333333334,133.33333333333334 0,0,0 338.989420603689,392.87793240088934L341.19153648295116,366.30234592071145A106.66666666666666,106.66666666666666 0,0,1 336.1812969629384,365.76777025233764Z" style="pointer-events: all; stroke-width: 1; fill: rgb(239, 85, 59); fill-opacity: 1; stroke: rgb(255, 255, 255); stroke-opacity: 1; opacity: 0.7;"/><g class="slicetext"><text data-notex="1" class="slicetext" text-anchor="middle" x="0" y="0" style="font-family: 'Open Sans', verdana, arial, sans-serif; font-size: 12px; fill: rgb(68, 68, 68); fill-opacity: 1; white-space: pre;" transform="translate(336.52633226441293,386.28016305664886)scale(0.43867265566214836)rotate(-83.90977443609017)translate(0,4.5)">origin</text></g></g><g class="slice"><path class="surface" d="M483.33333333333337,260L510,260A160,160 0,0,0 478.5483738124578,164.735549179284L457.1236448437148,180.6129576494033A133.33333333333334,133.33333333333334 0,0,1 483.33333333333337,260Z" style="pointer-events: all; stroke-width: 1; fill: rgb(99, 110, 250); fill-opacity: 1; stroke: rgb(255, 255, 255); stroke-opacity: 1; opacity: 0.7;"/><g class="slicetext"><text data-notex="1" class="slicetext" text-anchor="middle" x="0" y="0" style="font-family: 'Open Sans', verdana, arial, sans-serif; font-size: 12px; fill: rgb(255, 255, 255); fill-opacity: 1; white-space: pre;" transform="translate(487.1724003385283,214.71243447553573)rotate(71.72932330827064)translate(-0.0546875,4.5)">modules</text></g></g><g class="slice"><path class="surface" d="M457.1236448437148,180.6129576494033L478.5483738124578,164.735549179284A160,160 0,0,0 452.6850869636851,137.2980321459332L435.5709058030709,157.748360121611A133.33333333333334,133.33333333333334 0,0,1 457.1236448437148,180.6129576494033Z" style="pointer-events: all; stroke-width: 1; fill: rgb(99, 110, 250); fill-opacity: 1; stroke: rgb(255, 255, 255); stroke-opacity: 1; opacity: 0.7;"/><g class="slicetext"><text data-notex="1" class="slicetext" text-anchor="middle" x="0" y="0" style="font-family: 'Open Sans', verdana, arial, sans-serif; font-size: 12px; fill: rgb(255, 255, 255); fill-opacity: 1; white-space: pre;" transform="translate(463.1399963136996,153.35142188072308)scale(0.5389340775784669)rotate(46.69172932330832)translate(-0.0390625,4.5)">find-modules</text></g></g><g class="slice"><path class="surface" d="M430.64665990501834,153.82140505760077L446.775991886022,132.58568606912092A160,160 0,0,0 443.73962167363595,130.3354970376102L428.1163513946966,151.9462475313418A133.33333333333334,133.33333333333334 0,0,1 430.64665990501834,153.82140505760077Z" style="pointer-events: all; stroke-width: 1; fill: rgb(99, 110, 250); fill-opacity: 1; stroke: rgb(255, 255, 255); stroke-opacity: 1; opacity: 0.7;"/><g class="slicetext"><text data-notex="1" class="slicetext" text-anchor="middle" x="0" y="0" style="font-family: 'Open Sans', verdana, arial, sans-serif; font-size: 12px; fill: rgb(255, 255, 255); fill-opacity: 1; white-space: pre;" transform="translate(443.69636989599985,133.56757028990154)scale(0.2610969549276952)rotate(-53.45864661654139)translate(-0.15625,4)">tmp</text></g></g><g class="slice"><path class="surface" d="M397.733384902664,135.50380831723442L407.28006188319677,110.6045699806813A160,160 0,0,0 403.7355419612196,109.29335936948894L394.77961830101634,134.41113280790745A133.33333333333334,133.33333333333334 0,0,1 397.733384902664,135.50380831723442Z" style="pointer-events: all; stroke-width: 1; fill: rgb(99, 110, 250); fill-opacity: 1; stroke: rgb(255, 255, 255); stroke-opacity: 1; opacity: 0.7;"/><g class="slicetext"><text data-notex="1" class="slicetext" text-anchor="middle" x="0" y="0" style="font-family: 'Open Sans', verdana, arial, sans-serif; font-size: 12px; fill: rgb(255, 255, 255); fill-opacity: 1; white-space: pre;" transform="translate(404.5979349812031,112.40855543130101)scale(0.2610969549276952)rotate(-69.69924812030081)translate(-0.15625,4)">tmp</text></g></g><g class="slice"><path class="surface" d="M308.1991319949625,386.6114734603591L299.83895839395495,411.93376815243084A160,160 0,0,0 307.06990756904247,414.13308263922266L314.22492297420206,388.4442355326855A133.33333333333334,133.33333333333334 0,0,1 308.1991319949625,386.6114734603591Z" style="pointer-events: all; stroke-width: 1; fill: rgb(239, 85, 59); fill-opacity: 1; stroke: rgb(255, 255, 255); stroke-opacity: 1; opacity: 0.7;"/><g class="slicetext"><text data-notex="1" class="slicetext" text-anchor="middle" x="0" y="0" style="font-family: 'Open Sans', verdana, arial, sans-serif; font-size: 12px; fill: rgb(68, 68, 68); fill-opacity: 1; white-space: pre;" transform="translate(305.65404952868147,405.80148310067966)scale(0.526407186794587)rotate(-73.08270676691734)translate(0,4.5)">origin</text></g></g></g></g><g class="glimages"/><defs id="topdefs-2a5cb4"><g class="clips"/></defs><g class="layer-above"><g class="imagelayer"/><g class="shapelayer"/></g><g class="infolayer"><g class="g-gtitle"/></g></svg>